<mxfile host="app.diagrams.net" modified="2024-06-01T18:52:23.893Z" agent="Mozilla/5.0 (X11; Linux x86_64) AppleWebKit/537.36 (KHTML, like Gecko) Chrome/125.0.0.0 Safari/537.36" etag="dyQQt8bP-1ZpA8htYcRO" version="24.4.13" type="google">
  <diagram name="Page-1" id="03018318-947c-dd8e-b7a3-06fadd420f32">
    <mxGraphModel grid="1" page="1" gridSize="10" guides="1" tooltips="1" connect="1" arrows="1" fold="1" pageScale="1" pageWidth="1100" pageHeight="850" background="#ffffff" math="0" shadow="0">
      <root>
        <mxCell id="0" />
        <mxCell id="1" parent="0" />
        <mxCell id="ZyAtSVCC6lzZeVUkMO0P-5" value="" style="rounded=0;whiteSpace=wrap;html=1;fillColor=#f5f5f5;fontColor=#333333;strokeColor=#666666;" vertex="1" parent="1">
          <mxGeometry y="1150" width="1100" height="190" as="geometry" />
        </mxCell>
        <mxCell id="ZyAtSVCC6lzZeVUkMO0P-3" value="" style="rounded=0;whiteSpace=wrap;html=1;" vertex="1" parent="1">
          <mxGeometry y="130" width="1100" height="40" as="geometry" />
        </mxCell>
        <mxCell id="ZyAtSVCC6lzZeVUkMO0P-2" value="" style="rounded=0;whiteSpace=wrap;html=1;fillColor=#f5f5f5;fontColor=#333333;strokeColor=#666666;" vertex="1" parent="1">
          <mxGeometry y="40" width="1100" height="90" as="geometry" />
        </mxCell>
        <mxCell id="ZyAtSVCC6lzZeVUkMO0P-1" value="" style="rounded=0;whiteSpace=wrap;html=1;" vertex="1" parent="1">
          <mxGeometry width="1100" height="40" as="geometry" />
        </mxCell>
        <mxCell id="YPrZ4P48iWF1rKAgXMPz-6" value="LOGO" style="rounded=1;whiteSpace=wrap;html=1;strokeColor=default;" vertex="1" parent="1">
          <mxGeometry x="130" y="55" width="120" height="60" as="geometry" />
        </mxCell>
        <mxCell id="YPrZ4P48iWF1rKAgXMPz-8" value="Buscador" style="rounded=1;whiteSpace=wrap;html=1;" vertex="1" parent="1">
          <mxGeometry x="300" y="70" width="400" height="30" as="geometry" />
        </mxCell>
        <mxCell id="YPrZ4P48iWF1rKAgXMPz-9" value="Telefono" style="text;html=1;align=center;verticalAlign=middle;whiteSpace=wrap;rounded=0;" vertex="1" parent="1">
          <mxGeometry x="660" y="10" width="60" height="30" as="geometry" />
        </mxCell>
        <mxCell id="YPrZ4P48iWF1rKAgXMPz-11" value="correo@correo.com" style="text;html=1;align=center;verticalAlign=middle;whiteSpace=wrap;rounded=0;" vertex="1" parent="1">
          <mxGeometry x="760" y="10" width="60" height="30" as="geometry" />
        </mxCell>
        <mxCell id="YPrZ4P48iWF1rKAgXMPz-12" value="Direccion" style="text;html=1;align=center;verticalAlign=middle;whiteSpace=wrap;rounded=0;" vertex="1" parent="1">
          <mxGeometry x="860" y="10" width="60" height="30" as="geometry" />
        </mxCell>
        <mxCell id="YPrZ4P48iWF1rKAgXMPz-14" value="" style="shape=sumEllipse;perimeter=ellipsePerimeter;whiteSpace=wrap;html=1;backgroundOutline=1;" vertex="1" parent="1">
          <mxGeometry x="740" y="70" width="30" height="30" as="geometry" />
        </mxCell>
        <mxCell id="YPrZ4P48iWF1rKAgXMPz-15" value="" style="shape=sumEllipse;perimeter=ellipsePerimeter;whiteSpace=wrap;html=1;backgroundOutline=1;" vertex="1" parent="1">
          <mxGeometry x="780" y="70" width="30" height="30" as="geometry" />
        </mxCell>
        <mxCell id="YPrZ4P48iWF1rKAgXMPz-16" value="" style="shape=sumEllipse;perimeter=ellipsePerimeter;whiteSpace=wrap;html=1;backgroundOutline=1;" vertex="1" parent="1">
          <mxGeometry x="820" y="70" width="30" height="30" as="geometry" />
        </mxCell>
        <mxCell id="YPrZ4P48iWF1rKAgXMPz-17" value="" style="shape=sumEllipse;perimeter=ellipsePerimeter;whiteSpace=wrap;html=1;backgroundOutline=1;" vertex="1" parent="1">
          <mxGeometry x="860" y="70" width="30" height="30" as="geometry" />
        </mxCell>
        <mxCell id="YPrZ4P48iWF1rKAgXMPz-18" value="" style="shape=sumEllipse;perimeter=ellipsePerimeter;whiteSpace=wrap;html=1;backgroundOutline=1;" vertex="1" parent="1">
          <mxGeometry x="900" y="70" width="30" height="30" as="geometry" />
        </mxCell>
        <mxCell id="YPrZ4P48iWF1rKAgXMPz-21" value="Menu Item 1" style="text;html=1;align=center;verticalAlign=middle;whiteSpace=wrap;rounded=0;" vertex="1" parent="1">
          <mxGeometry x="113" y="140" width="90" height="30" as="geometry" />
        </mxCell>
        <mxCell id="YPrZ4P48iWF1rKAgXMPz-22" value="Menu Item 2" style="text;html=1;align=center;verticalAlign=middle;whiteSpace=wrap;rounded=0;" vertex="1" parent="1">
          <mxGeometry x="245" y="140" width="90" height="30" as="geometry" />
        </mxCell>
        <mxCell id="YPrZ4P48iWF1rKAgXMPz-23" value="Menu Item 3" style="text;html=1;align=center;verticalAlign=middle;whiteSpace=wrap;rounded=0;" vertex="1" parent="1">
          <mxGeometry x="376" y="140" width="90" height="30" as="geometry" />
        </mxCell>
        <mxCell id="YPrZ4P48iWF1rKAgXMPz-24" value="Menu Item 4" style="text;html=1;align=center;verticalAlign=middle;whiteSpace=wrap;rounded=0;" vertex="1" parent="1">
          <mxGeometry x="508" y="140" width="90" height="30" as="geometry" />
        </mxCell>
        <mxCell id="YPrZ4P48iWF1rKAgXMPz-25" value="Menu Item 5" style="text;html=1;align=center;verticalAlign=middle;whiteSpace=wrap;rounded=0;" vertex="1" parent="1">
          <mxGeometry x="640" y="140" width="90" height="30" as="geometry" />
        </mxCell>
        <mxCell id="YPrZ4P48iWF1rKAgXMPz-26" value="Menu Item 6" style="text;html=1;align=center;verticalAlign=middle;whiteSpace=wrap;rounded=0;" vertex="1" parent="1">
          <mxGeometry x="771" y="140" width="90" height="30" as="geometry" />
        </mxCell>
        <mxCell id="YPrZ4P48iWF1rKAgXMPz-27" value="Menu Item 7" style="text;html=1;align=center;verticalAlign=middle;whiteSpace=wrap;rounded=0;" vertex="1" parent="1">
          <mxGeometry x="903" y="140" width="90" height="30" as="geometry" />
        </mxCell>
        <mxCell id="YPrZ4P48iWF1rKAgXMPz-28" value="" style="shape=ext;double=1;rounded=0;whiteSpace=wrap;html=1;" vertex="1" parent="1">
          <mxGeometry x="80" y="164" width="940" height="186" as="geometry" />
        </mxCell>
        <mxCell id="YPrZ4P48iWF1rKAgXMPz-36" value="" style="group" connectable="0" vertex="1" parent="1">
          <mxGeometry x="90" y="180" width="100" height="82" as="geometry" />
        </mxCell>
        <mxCell id="YPrZ4P48iWF1rKAgXMPz-29" value="Producto" style="text;html=1;align=center;verticalAlign=middle;whiteSpace=wrap;rounded=0;" vertex="1" parent="YPrZ4P48iWF1rKAgXMPz-36">
          <mxGeometry width="90" height="30" as="geometry" />
        </mxCell>
        <mxCell id="YPrZ4P48iWF1rKAgXMPz-30" value="* Item" style="text;html=1;align=center;verticalAlign=middle;whiteSpace=wrap;rounded=0;" vertex="1" parent="YPrZ4P48iWF1rKAgXMPz-36">
          <mxGeometry x="10" y="20" width="90" height="30" as="geometry" />
        </mxCell>
        <mxCell id="YPrZ4P48iWF1rKAgXMPz-31" value="* Item" style="text;html=1;align=center;verticalAlign=middle;whiteSpace=wrap;rounded=0;" vertex="1" parent="YPrZ4P48iWF1rKAgXMPz-36">
          <mxGeometry x="10" y="35" width="90" height="30" as="geometry" />
        </mxCell>
        <mxCell id="YPrZ4P48iWF1rKAgXMPz-32" value="* Item" style="text;html=1;align=center;verticalAlign=middle;whiteSpace=wrap;rounded=0;" vertex="1" parent="YPrZ4P48iWF1rKAgXMPz-36">
          <mxGeometry x="10" y="52" width="90" height="30" as="geometry" />
        </mxCell>
        <mxCell id="YPrZ4P48iWF1rKAgXMPz-37" value="" style="group" connectable="0" vertex="1" parent="1">
          <mxGeometry x="90" y="258" width="100" height="82" as="geometry" />
        </mxCell>
        <mxCell id="YPrZ4P48iWF1rKAgXMPz-38" value="Producto" style="text;html=1;align=center;verticalAlign=middle;whiteSpace=wrap;rounded=0;" vertex="1" parent="YPrZ4P48iWF1rKAgXMPz-37">
          <mxGeometry width="90" height="30" as="geometry" />
        </mxCell>
        <mxCell id="YPrZ4P48iWF1rKAgXMPz-39" value="* Item" style="text;html=1;align=center;verticalAlign=middle;whiteSpace=wrap;rounded=0;" vertex="1" parent="YPrZ4P48iWF1rKAgXMPz-37">
          <mxGeometry x="10" y="20" width="90" height="30" as="geometry" />
        </mxCell>
        <mxCell id="YPrZ4P48iWF1rKAgXMPz-40" value="* Item" style="text;html=1;align=center;verticalAlign=middle;whiteSpace=wrap;rounded=0;" vertex="1" parent="YPrZ4P48iWF1rKAgXMPz-37">
          <mxGeometry x="10" y="35" width="90" height="30" as="geometry" />
        </mxCell>
        <mxCell id="YPrZ4P48iWF1rKAgXMPz-41" value="* Item" style="text;html=1;align=center;verticalAlign=middle;whiteSpace=wrap;rounded=0;" vertex="1" parent="YPrZ4P48iWF1rKAgXMPz-37">
          <mxGeometry x="10" y="52" width="90" height="30" as="geometry" />
        </mxCell>
        <mxCell id="YPrZ4P48iWF1rKAgXMPz-42" value="" style="group" connectable="0" vertex="1" parent="1">
          <mxGeometry x="200" y="180" width="100" height="82" as="geometry" />
        </mxCell>
        <mxCell id="YPrZ4P48iWF1rKAgXMPz-43" value="Producto" style="text;html=1;align=center;verticalAlign=middle;whiteSpace=wrap;rounded=0;" vertex="1" parent="YPrZ4P48iWF1rKAgXMPz-42">
          <mxGeometry width="90" height="30" as="geometry" />
        </mxCell>
        <mxCell id="YPrZ4P48iWF1rKAgXMPz-44" value="* Item" style="text;html=1;align=center;verticalAlign=middle;whiteSpace=wrap;rounded=0;" vertex="1" parent="YPrZ4P48iWF1rKAgXMPz-42">
          <mxGeometry x="10" y="20" width="90" height="30" as="geometry" />
        </mxCell>
        <mxCell id="YPrZ4P48iWF1rKAgXMPz-45" value="* Item" style="text;html=1;align=center;verticalAlign=middle;whiteSpace=wrap;rounded=0;" vertex="1" parent="YPrZ4P48iWF1rKAgXMPz-42">
          <mxGeometry x="10" y="35" width="90" height="30" as="geometry" />
        </mxCell>
        <mxCell id="YPrZ4P48iWF1rKAgXMPz-46" value="* Item" style="text;html=1;align=center;verticalAlign=middle;whiteSpace=wrap;rounded=0;" vertex="1" parent="YPrZ4P48iWF1rKAgXMPz-42">
          <mxGeometry x="10" y="52" width="90" height="30" as="geometry" />
        </mxCell>
        <mxCell id="YPrZ4P48iWF1rKAgXMPz-47" value="" style="group" connectable="0" vertex="1" parent="1">
          <mxGeometry x="200" y="258" width="100" height="82" as="geometry" />
        </mxCell>
        <mxCell id="YPrZ4P48iWF1rKAgXMPz-48" value="Producto" style="text;html=1;align=center;verticalAlign=middle;whiteSpace=wrap;rounded=0;" vertex="1" parent="YPrZ4P48iWF1rKAgXMPz-47">
          <mxGeometry width="90" height="30" as="geometry" />
        </mxCell>
        <mxCell id="YPrZ4P48iWF1rKAgXMPz-49" value="* Item" style="text;html=1;align=center;verticalAlign=middle;whiteSpace=wrap;rounded=0;" vertex="1" parent="YPrZ4P48iWF1rKAgXMPz-47">
          <mxGeometry x="10" y="20" width="90" height="30" as="geometry" />
        </mxCell>
        <mxCell id="YPrZ4P48iWF1rKAgXMPz-50" value="* Item" style="text;html=1;align=center;verticalAlign=middle;whiteSpace=wrap;rounded=0;" vertex="1" parent="YPrZ4P48iWF1rKAgXMPz-47">
          <mxGeometry x="10" y="35" width="90" height="30" as="geometry" />
        </mxCell>
        <mxCell id="YPrZ4P48iWF1rKAgXMPz-51" value="* Item" style="text;html=1;align=center;verticalAlign=middle;whiteSpace=wrap;rounded=0;" vertex="1" parent="YPrZ4P48iWF1rKAgXMPz-47">
          <mxGeometry x="10" y="52" width="90" height="30" as="geometry" />
        </mxCell>
        <mxCell id="YPrZ4P48iWF1rKAgXMPz-52" value="" style="group" connectable="0" vertex="1" parent="1">
          <mxGeometry x="310" y="180" width="100" height="82" as="geometry" />
        </mxCell>
        <mxCell id="YPrZ4P48iWF1rKAgXMPz-53" value="Producto" style="text;html=1;align=center;verticalAlign=middle;whiteSpace=wrap;rounded=0;" vertex="1" parent="YPrZ4P48iWF1rKAgXMPz-52">
          <mxGeometry width="90" height="30" as="geometry" />
        </mxCell>
        <mxCell id="YPrZ4P48iWF1rKAgXMPz-54" value="* Item" style="text;html=1;align=center;verticalAlign=middle;whiteSpace=wrap;rounded=0;" vertex="1" parent="YPrZ4P48iWF1rKAgXMPz-52">
          <mxGeometry x="10" y="20" width="90" height="30" as="geometry" />
        </mxCell>
        <mxCell id="YPrZ4P48iWF1rKAgXMPz-55" value="* Item" style="text;html=1;align=center;verticalAlign=middle;whiteSpace=wrap;rounded=0;" vertex="1" parent="YPrZ4P48iWF1rKAgXMPz-52">
          <mxGeometry x="10" y="35" width="90" height="30" as="geometry" />
        </mxCell>
        <mxCell id="YPrZ4P48iWF1rKAgXMPz-56" value="* Item" style="text;html=1;align=center;verticalAlign=middle;whiteSpace=wrap;rounded=0;" vertex="1" parent="YPrZ4P48iWF1rKAgXMPz-52">
          <mxGeometry x="10" y="52" width="90" height="30" as="geometry" />
        </mxCell>
        <mxCell id="YPrZ4P48iWF1rKAgXMPz-57" value="" style="group" connectable="0" vertex="1" parent="1">
          <mxGeometry x="310" y="258" width="100" height="82" as="geometry" />
        </mxCell>
        <mxCell id="YPrZ4P48iWF1rKAgXMPz-58" value="Producto" style="text;html=1;align=center;verticalAlign=middle;whiteSpace=wrap;rounded=0;" vertex="1" parent="YPrZ4P48iWF1rKAgXMPz-57">
          <mxGeometry width="90" height="30" as="geometry" />
        </mxCell>
        <mxCell id="YPrZ4P48iWF1rKAgXMPz-59" value="* Item" style="text;html=1;align=center;verticalAlign=middle;whiteSpace=wrap;rounded=0;" vertex="1" parent="YPrZ4P48iWF1rKAgXMPz-57">
          <mxGeometry x="10" y="20" width="90" height="30" as="geometry" />
        </mxCell>
        <mxCell id="YPrZ4P48iWF1rKAgXMPz-60" value="* Item" style="text;html=1;align=center;verticalAlign=middle;whiteSpace=wrap;rounded=0;" vertex="1" parent="YPrZ4P48iWF1rKAgXMPz-57">
          <mxGeometry x="10" y="35" width="90" height="30" as="geometry" />
        </mxCell>
        <mxCell id="YPrZ4P48iWF1rKAgXMPz-61" value="* Item" style="text;html=1;align=center;verticalAlign=middle;whiteSpace=wrap;rounded=0;" vertex="1" parent="YPrZ4P48iWF1rKAgXMPz-57">
          <mxGeometry x="10" y="52" width="90" height="30" as="geometry" />
        </mxCell>
        <mxCell id="YPrZ4P48iWF1rKAgXMPz-62" value="" style="group" connectable="0" vertex="1" parent="1">
          <mxGeometry x="420" y="180" width="100" height="82" as="geometry" />
        </mxCell>
        <mxCell id="YPrZ4P48iWF1rKAgXMPz-63" value="Producto" style="text;html=1;align=center;verticalAlign=middle;whiteSpace=wrap;rounded=0;" vertex="1" parent="YPrZ4P48iWF1rKAgXMPz-62">
          <mxGeometry width="90" height="30" as="geometry" />
        </mxCell>
        <mxCell id="YPrZ4P48iWF1rKAgXMPz-64" value="* Item" style="text;html=1;align=center;verticalAlign=middle;whiteSpace=wrap;rounded=0;" vertex="1" parent="YPrZ4P48iWF1rKAgXMPz-62">
          <mxGeometry x="10" y="20" width="90" height="30" as="geometry" />
        </mxCell>
        <mxCell id="YPrZ4P48iWF1rKAgXMPz-65" value="* Item" style="text;html=1;align=center;verticalAlign=middle;whiteSpace=wrap;rounded=0;" vertex="1" parent="YPrZ4P48iWF1rKAgXMPz-62">
          <mxGeometry x="10" y="35" width="90" height="30" as="geometry" />
        </mxCell>
        <mxCell id="YPrZ4P48iWF1rKAgXMPz-66" value="* Item" style="text;html=1;align=center;verticalAlign=middle;whiteSpace=wrap;rounded=0;" vertex="1" parent="YPrZ4P48iWF1rKAgXMPz-62">
          <mxGeometry x="10" y="52" width="90" height="30" as="geometry" />
        </mxCell>
        <mxCell id="YPrZ4P48iWF1rKAgXMPz-67" value="" style="group" connectable="0" vertex="1" parent="1">
          <mxGeometry x="420" y="258" width="100" height="82" as="geometry" />
        </mxCell>
        <mxCell id="YPrZ4P48iWF1rKAgXMPz-68" value="Producto" style="text;html=1;align=center;verticalAlign=middle;whiteSpace=wrap;rounded=0;" vertex="1" parent="YPrZ4P48iWF1rKAgXMPz-67">
          <mxGeometry width="90" height="30" as="geometry" />
        </mxCell>
        <mxCell id="YPrZ4P48iWF1rKAgXMPz-69" value="* Item" style="text;html=1;align=center;verticalAlign=middle;whiteSpace=wrap;rounded=0;" vertex="1" parent="YPrZ4P48iWF1rKAgXMPz-67">
          <mxGeometry x="10" y="20" width="90" height="30" as="geometry" />
        </mxCell>
        <mxCell id="YPrZ4P48iWF1rKAgXMPz-70" value="* Item" style="text;html=1;align=center;verticalAlign=middle;whiteSpace=wrap;rounded=0;" vertex="1" parent="YPrZ4P48iWF1rKAgXMPz-67">
          <mxGeometry x="10" y="35" width="90" height="30" as="geometry" />
        </mxCell>
        <mxCell id="YPrZ4P48iWF1rKAgXMPz-71" value="* Item" style="text;html=1;align=center;verticalAlign=middle;whiteSpace=wrap;rounded=0;" vertex="1" parent="YPrZ4P48iWF1rKAgXMPz-67">
          <mxGeometry x="10" y="52" width="90" height="30" as="geometry" />
        </mxCell>
        <mxCell id="YPrZ4P48iWF1rKAgXMPz-153" value="Contacto" style="text;html=1;align=center;verticalAlign=middle;whiteSpace=wrap;rounded=0;" vertex="1" parent="1">
          <mxGeometry x="249" y="1165" width="110" height="30" as="geometry" />
        </mxCell>
        <mxCell id="YPrZ4P48iWF1rKAgXMPz-156" value="datos del sitio" style="text;html=1;align=center;verticalAlign=middle;whiteSpace=wrap;rounded=0;" vertex="1" parent="1">
          <mxGeometry x="249" y="1195" width="110" height="30" as="geometry" />
        </mxCell>
        <mxCell id="YPrZ4P48iWF1rKAgXMPz-157" value="datos del sitio" style="text;html=1;align=center;verticalAlign=middle;whiteSpace=wrap;rounded=0;" vertex="1" parent="1">
          <mxGeometry x="249" y="1217" width="110" height="30" as="geometry" />
        </mxCell>
        <mxCell id="YPrZ4P48iWF1rKAgXMPz-158" value="datos del sitio" style="text;html=1;align=center;verticalAlign=middle;whiteSpace=wrap;rounded=0;" vertex="1" parent="1">
          <mxGeometry x="249" y="1239" width="110" height="30" as="geometry" />
        </mxCell>
        <mxCell id="YPrZ4P48iWF1rKAgXMPz-159" value="datos del sitio" style="text;html=1;align=center;verticalAlign=middle;whiteSpace=wrap;rounded=0;" vertex="1" parent="1">
          <mxGeometry x="249" y="1261" width="110" height="30" as="geometry" />
        </mxCell>
        <mxCell id="YPrZ4P48iWF1rKAgXMPz-160" value="datos del sitio" style="text;html=1;align=center;verticalAlign=middle;whiteSpace=wrap;rounded=0;" vertex="1" parent="1">
          <mxGeometry x="249" y="1283" width="110" height="30" as="geometry" />
        </mxCell>
        <mxCell id="YPrZ4P48iWF1rKAgXMPz-161" value="datos del sitio" style="text;html=1;align=center;verticalAlign=middle;whiteSpace=wrap;rounded=0;" vertex="1" parent="1">
          <mxGeometry x="249" y="1305" width="110" height="30" as="geometry" />
        </mxCell>
        <mxCell id="YPrZ4P48iWF1rKAgXMPz-162" value="datos del sitio" style="text;html=1;align=center;verticalAlign=middle;whiteSpace=wrap;rounded=0;" vertex="1" parent="1">
          <mxGeometry x="544" y="1195" width="110" height="30" as="geometry" />
        </mxCell>
        <mxCell id="YPrZ4P48iWF1rKAgXMPz-163" value="datos del sitio" style="text;html=1;align=center;verticalAlign=middle;whiteSpace=wrap;rounded=0;" vertex="1" parent="1">
          <mxGeometry x="544" y="1217" width="110" height="30" as="geometry" />
        </mxCell>
        <mxCell id="YPrZ4P48iWF1rKAgXMPz-164" value="datos del sitio" style="text;html=1;align=center;verticalAlign=middle;whiteSpace=wrap;rounded=0;" vertex="1" parent="1">
          <mxGeometry x="544" y="1239" width="110" height="30" as="geometry" />
        </mxCell>
        <mxCell id="YPrZ4P48iWF1rKAgXMPz-165" value="datos del sitio" style="text;html=1;align=center;verticalAlign=middle;whiteSpace=wrap;rounded=0;" vertex="1" parent="1">
          <mxGeometry x="544" y="1261" width="110" height="30" as="geometry" />
        </mxCell>
        <mxCell id="YPrZ4P48iWF1rKAgXMPz-166" value="datos del sitio" style="text;html=1;align=center;verticalAlign=middle;whiteSpace=wrap;rounded=0;" vertex="1" parent="1">
          <mxGeometry x="544" y="1283" width="110" height="30" as="geometry" />
        </mxCell>
        <mxCell id="YPrZ4P48iWF1rKAgXMPz-167" value="Contacto WEB" style="text;html=1;align=center;verticalAlign=middle;whiteSpace=wrap;rounded=0;" vertex="1" parent="1">
          <mxGeometry x="544" y="1165" width="110" height="30" as="geometry" />
        </mxCell>
        <mxCell id="ZyAtSVCC6lzZeVUkMO0P-6" value="" style="shape=sumEllipse;perimeter=ellipsePerimeter;whiteSpace=wrap;html=1;backgroundOutline=1;" vertex="1" parent="1">
          <mxGeometry x="860.5" y="1300" width="26" height="26" as="geometry" />
        </mxCell>
        <mxCell id="ZyAtSVCC6lzZeVUkMO0P-7" value="" style="shape=sumEllipse;perimeter=ellipsePerimeter;whiteSpace=wrap;html=1;backgroundOutline=1;" vertex="1" parent="1">
          <mxGeometry x="795" y="1300" width="26" height="26" as="geometry" />
        </mxCell>
        <mxCell id="ZyAtSVCC6lzZeVUkMO0P-8" value="" style="shape=sumEllipse;perimeter=ellipsePerimeter;whiteSpace=wrap;html=1;backgroundOutline=1;" vertex="1" parent="1">
          <mxGeometry x="827.5" y="1300" width="26" height="26" as="geometry" />
        </mxCell>
        <mxCell id="ZyAtSVCC6lzZeVUkMO0P-32" value="" style="rounded=0;whiteSpace=wrap;html=1;" vertex="1" parent="1">
          <mxGeometry x="173" y="400" width="760" height="650" as="geometry" />
        </mxCell>
        <mxCell id="ZyAtSVCC6lzZeVUkMO0P-33" value="Iniciar Sesion" style="text;html=1;align=center;verticalAlign=middle;whiteSpace=wrap;rounded=0;fontSize=24;" vertex="1" parent="1">
          <mxGeometry x="233" y="440" width="250" height="30" as="geometry" />
        </mxCell>
        <mxCell id="ZyAtSVCC6lzZeVUkMO0P-34" value="correo" style="rounded=0;whiteSpace=wrap;html=1;align=center;" vertex="1" parent="1">
          <mxGeometry x="241.5" y="490" width="610" height="60" as="geometry" />
        </mxCell>
        <mxCell id="ZyAtSVCC6lzZeVUkMO0P-35" value="Clave" style="rounded=0;whiteSpace=wrap;html=1;align=center;" vertex="1" parent="1">
          <mxGeometry x="241.5" y="560" width="610" height="60" as="geometry" />
        </mxCell>
        <mxCell id="ZyAtSVCC6lzZeVUkMO0P-42" value="Entrar" style="rounded=1;html=1;shadow=0;dashed=0;whiteSpace=wrap;fontSize=25;fillColor=#666666;align=center;strokeColor=#4D4D4D;fontColor=#ffffff;" vertex="1" parent="1">
          <mxGeometry x="241.5" y="650" width="611.5" height="40" as="geometry" />
        </mxCell>
        <mxCell id="ZyAtSVCC6lzZeVUkMO0P-43" value="correo" style="rounded=0;whiteSpace=wrap;html=1;align=center;" vertex="1" parent="1">
          <mxGeometry x="240" y="860" width="610" height="60" as="geometry" />
        </mxCell>
        <mxCell id="ZyAtSVCC6lzZeVUkMO0P-45" value="Entrar" style="rounded=1;html=1;shadow=0;dashed=0;whiteSpace=wrap;fontSize=25;fillColor=#666666;align=center;strokeColor=#4D4D4D;fontColor=#ffffff;" vertex="1" parent="1">
          <mxGeometry x="238.5" y="950" width="611.5" height="40" as="geometry" />
        </mxCell>
        <mxCell id="ZyAtSVCC6lzZeVUkMO0P-46" value="Recuperar Clave" style="text;html=1;align=center;verticalAlign=middle;whiteSpace=wrap;rounded=0;fontSize=24;" vertex="1" parent="1">
          <mxGeometry x="240" y="810" width="250" height="30" as="geometry" />
        </mxCell>
      </root>
    </mxGraphModel>
  </diagram>
</mxfile>
